<svg width="1168" height="137" viewBox="0 0 1168 137" fill="none" xmlns="http://www.w3.org/2000/svg">
<path d="M106.537 84.0022H28.5001V65.3996H129.127C126.486 57.5076 117.979 50.1793 103.017 50.1793H29.9669C13.2447 50.1793 3.56344 56.0983 3.56344 69.0638V82.8748C3.56344 94.1491 13.5381 100.632 28.2067 100.632H107.124V120.362H0.923096C3.56344 131.072 12.0712 136.71 27.3266 136.71H106.83C123.553 136.71 131.767 130.509 131.767 117.261V103.45C131.767 91.3305 122.086 84.8478 106.537 84.0022ZM265.838 50.4611H169.612V136.991H196.896V103.732H267.892C287.548 103.732 298.402 97.2495 298.402 82.0292V72.4461C298.109 58.3532 285.787 50.4611 265.838 50.4611ZM274.639 78.0832C274.639 84.2841 273.466 87.6664 262.904 87.6664H196.896L197.189 65.1178H261.731C273.466 65.1178 274.933 68.5 274.933 74.4191V78.0832H274.639ZM389.054 103.169H330.967L316.591 117.825H400.496L414.871 136.991H447.142L377.613 46.797L361.184 66.2452L389.054 103.169ZM499.362 65.3996H601.456C598.815 55.2527 588.547 50.1793 573.879 50.1793H497.602C484.4 50.1793 471.785 55.2527 471.785 69.0638V117.543C471.785 131.354 484.4 136.428 497.602 136.428H574.759C592.361 136.428 598.522 131.636 601.456 120.08H499.362V65.3996ZM721.151 94.1491V79.4925H638.714V136.991H760.463V120.644H666.291V94.1491H721.151ZM641.648 50.4611H764.57V65.6815H641.648V50.4611ZM840.261 50.4611H797.428L847.888 85.9752C855.222 81.1836 863.73 76.1102 871.358 71.8823L840.261 50.4611ZM902.455 94.7128C895.121 99.5044 887.787 104.86 880.746 109.933L918.884 136.71H962.01L902.455 94.7128Z" fill="black"/>
<path d="M1167.08 0.00854492C932.379 12.974 823.832 109.369 799.482 132.2L794.494 136.71H837.913C955.262 23.6846 1123.95 3.6727 1167.08 0.00854492Z" fill="black"/>
</svg>
